<svg width="140" height="48" viewBox="0 0 140 48" fill="none" xmlns="http://www.w3.org/2000/svg">
<path d="M56.5164 16.2727V21.3863H42.7522V16.2727H56.5164ZM45.6357 11.0454H52.5817V31.2301C52.5817 31.6562 52.648 32.0019 52.7806 32.267C52.9227 32.5227 53.1263 32.7073 53.3914 32.821C53.6566 32.9251 53.9738 32.9772 54.3431 32.9772C54.6083 32.9772 54.8876 32.9536 55.1812 32.9062C55.4842 32.8494 55.7115 32.802 55.863 32.7642L56.9141 37.7784C56.5827 37.8731 56.1139 37.9914 55.5079 38.1335C54.9113 38.2755 54.1963 38.3655 53.363 38.4034C51.7342 38.4791 50.3374 38.2897 49.1727 37.8352C48.0173 37.3712 47.1319 36.6515 46.5164 35.6761C45.9103 34.7007 45.6168 33.4744 45.6357 31.9971V11.0454Z" fill="#479C6E"/>
<path d="M70.0107 38.5028C67.7191 38.5028 65.7494 38.034 64.1016 37.0965C62.4634 36.1496 61.1992 34.8333 60.309 33.1477C59.4283 31.4526 58.988 29.4876 58.988 27.2528C58.988 25.0085 59.4283 23.0435 60.309 21.3579C61.1992 19.6628 62.4634 18.3465 64.1016 17.409C65.7494 16.4621 67.7191 15.9886 70.0107 15.9886C72.3024 15.9886 74.2673 16.4621 75.9056 17.409C77.5533 18.3465 78.8175 19.6628 79.6982 21.3579C80.5884 23.0435 81.0334 25.0085 81.0334 27.2528C81.0334 29.4876 80.5884 31.4526 79.6982 33.1477C78.8175 34.8333 77.5533 36.1496 75.9056 37.0965C74.2673 38.034 72.3024 38.5028 70.0107 38.5028ZM70.0533 33.2613C70.8867 33.2613 71.5922 33.0056 72.1698 32.4943C72.7475 31.9829 73.1878 31.2727 73.4908 30.3636C73.8033 29.4545 73.9596 28.4034 73.9596 27.2102C73.9596 25.9981 73.8033 24.9375 73.4908 24.0284C73.1878 23.1193 72.7475 22.409 72.1698 21.8977C71.5922 21.3863 70.8867 21.1306 70.0533 21.1306C69.1916 21.1306 68.4624 21.3863 67.8658 21.8977C67.2787 22.409 66.8289 23.1193 66.5164 24.0284C66.2134 24.9375 66.0619 25.9981 66.0619 27.2102C66.0619 28.4034 66.2134 29.4545 66.5164 30.3636C66.8289 31.2727 67.2787 31.9829 67.8658 32.4943C68.4624 33.0056 69.1916 33.2613 70.0533 33.2613Z" fill="#479C6E"/>
<path d="M92.5605 38.4034C90.9506 38.4034 89.4875 37.9867 88.1713 37.1534C86.855 36.3201 85.8038 35.0701 85.0178 33.4034C84.2319 31.7367 83.8389 29.6676 83.8389 27.196C83.8389 24.6297 84.2461 22.518 85.0605 20.8608C85.8749 19.2036 86.9402 17.9773 88.2565 17.1818C89.5822 16.3864 91.0074 15.9886 92.5321 15.9886C93.6779 15.9886 94.658 16.1875 95.4724 16.5852C96.2868 16.9735 96.9591 17.4754 97.4894 18.0909C98.0197 18.7064 98.4222 19.3456 98.6968 20.0085H98.8389V9H105.785V38.0909H98.9099V34.554H98.6968C98.4033 35.2263 97.9866 35.8561 97.4468 36.4432C96.9071 37.0303 96.23 37.5038 95.4156 37.8636C94.6106 38.2235 93.6589 38.4034 92.5605 38.4034ZM94.9752 32.9915C95.818 32.9915 96.5377 32.7547 97.1343 32.2812C97.7309 31.7983 98.1902 31.1212 98.5122 30.25C98.8341 29.3788 98.9951 28.3561 98.9951 27.1818C98.9951 25.9886 98.8341 24.9612 98.5122 24.0994C98.1997 23.2377 97.7404 22.5748 97.1343 22.1108C96.5377 21.6468 95.818 21.4148 94.9752 21.4148C94.1135 21.4148 93.3843 21.6515 92.7877 22.125C92.1911 22.5985 91.7366 23.2661 91.4241 24.1278C91.1211 24.9896 90.9696 26.0076 90.9696 27.1818C90.9696 28.3561 91.1258 29.3788 91.4383 30.25C91.7508 31.1212 92.2006 31.7983 92.7877 32.2812C93.3843 32.7547 94.1135 32.9915 94.9752 32.9915Z" fill="#9359F3"/>
<path d="M120.362 38.5028C118.071 38.5028 116.101 38.0341 114.453 37.0966C112.815 36.1496 111.551 34.8333 110.661 33.1477C109.78 31.4527 109.34 29.4877 109.34 27.2528C109.34 25.0085 109.78 23.0436 110.661 21.358C111.551 19.6629 112.815 18.3466 114.453 17.4091C116.101 16.4621 118.071 15.9886 120.362 15.9886C122.654 15.9886 124.619 16.4621 126.257 17.4091C127.905 18.3466 129.169 19.6629 130.05 21.358C130.94 23.0436 131.385 25.0085 131.385 27.2528C131.385 29.4877 130.94 31.4527 130.05 33.1477C129.169 34.8333 127.905 36.1496 126.257 37.0966C124.619 38.0341 122.654 38.5028 120.362 38.5028ZM120.405 33.2614C121.238 33.2614 121.944 33.0057 122.521 32.4943C123.099 31.983 123.539 31.2727 123.842 30.3636C124.155 29.4545 124.311 28.4034 124.311 27.2102C124.311 25.9981 124.155 24.9375 123.842 24.0284C123.539 23.1193 123.099 22.4091 122.521 21.8977C121.944 21.3864 121.238 21.1307 120.405 21.1307C119.543 21.1307 118.814 21.3864 118.217 21.8977C117.63 22.4091 117.18 23.1193 116.868 24.0284C116.565 24.9375 116.413 25.9981 116.413 27.2102C116.413 28.4034 116.565 29.4545 116.868 30.3636C117.18 31.2727 117.63 31.983 118.217 32.4943C118.814 33.0057 119.543 33.2614 120.405 33.2614Z" fill="#9359F3"/>
<path d="M24.9998 37.5908C24.9998 37.9886 24.8417 38.3702 24.5604 38.6515C24.2791 38.9328 23.8976 39.0908 23.4998 39.0908H19.4998C19.1019 39.0908 18.7204 38.9328 18.4391 38.6515C18.1578 38.3702 17.9998 37.9886 17.9998 37.5908C17.9998 37.193 18.1578 36.8115 18.4391 36.5302C18.7204 36.2489 19.1019 36.0908 19.4998 36.0908H23.4998C23.8976 36.0908 24.2791 36.2489 24.5604 36.5302C24.8417 36.8115 24.9998 37.193 24.9998 37.5908ZM21.4998 23.5908C21.8953 23.5908 22.282 23.4735 22.6109 23.2538C22.9398 23.034 23.1961 22.7216 23.3475 22.3562C23.4989 21.9907 23.5385 21.5886 23.4613 21.2006C23.3842 20.8127 23.1937 20.4563 22.914 20.1766C22.6343 19.8969 22.2779 19.7064 21.8899 19.6293C21.502 19.5521 21.0998 19.5917 20.7344 19.7431C20.3689 19.8944 20.0566 20.1508 19.8368 20.4797C19.6171 20.8086 19.4998 21.1953 19.4998 21.5908C19.4998 22.1213 19.7105 22.63 20.0855 23.005C20.4606 23.3801 20.9693 23.5908 21.4998 23.5908Z" fill="#479C6E"/>
<path d="M33.9409 28.6784L32.3959 35.6322C32.305 36.0472 32.1093 36.432 31.8275 36.75C31.5457 37.0679 31.1871 37.3084 30.7859 37.4484C30.5172 37.5428 30.2345 37.591 29.9497 37.5909C29.3922 37.5905 28.8511 37.4025 28.4134 37.0572L25.1459 34.5909H17.8534L14.5859 37.0584C14.1481 37.4033 13.607 37.5908 13.0497 37.5909C12.7648 37.5906 12.4821 37.542 12.2134 37.4472C11.8123 37.3071 11.4537 37.0667 11.1719 36.7487C10.8901 36.4308 10.6943 36.046 10.6034 35.6309L9.05844 28.6784C8.97652 28.3053 8.98078 27.9184 9.07088 27.5471C9.16099 27.1758 9.33458 26.83 9.57844 26.5359L13.0572 22.3609C13.1903 20.7966 13.5547 19.2608 14.1384 17.8034C15.7972 13.6472 18.7634 11.0409 19.9684 10.1134C20.4067 9.77387 20.9453 9.5896 21.4997 9.5896C22.0541 9.5896 22.5927 9.77387 23.0309 10.1134C24.2309 11.0409 27.2022 13.6472 28.8609 17.8034C29.4447 19.2608 29.8091 20.7966 29.9422 22.3609L33.4209 26.5359C33.6648 26.83 33.8384 27.1758 33.9285 27.5471C34.0186 27.9184 34.0229 28.3053 33.9409 28.6784ZM18.2234 31.5909H24.7759C27.2147 27.1284 27.6509 22.8684 26.0747 18.9159C24.7997 15.7159 22.5247 13.5784 21.4997 12.7309C20.4747 13.5784 18.1997 15.7159 16.9247 18.9159C15.3472 22.8684 15.7847 27.1284 18.2234 31.5909ZM15.4047 32.6809C14.4073 30.8272 13.6944 28.8341 13.2897 26.7684L12.0397 28.2684L13.3622 34.2234L15.4047 32.6809ZM30.9584 28.2672L29.7084 26.7672C29.3037 28.8329 28.5908 30.826 27.5934 32.6797L29.6347 34.2209L30.9584 28.2672Z" fill="#9359F3"/>
</svg>
