<svg width="48" height="48" viewBox="0 0 48 48" fill="none" xmlns="http://www.w3.org/2000/svg">
<path d="M31.5 28.5C31.5 28.8978 31.342 29.2793 31.0607 29.5606C30.7794 29.8419 30.3978 30 30 30H18C17.6022 30 17.2206 29.8419 16.9393 29.5606C16.658 29.2793 16.5 28.8978 16.5 28.5C16.5 28.1021 16.658 27.7206 16.9393 27.4393C17.2206 27.158 17.6022 27 18 27H30C30.3978 27 30.7794 27.158 31.0607 27.4393C31.342 27.7206 31.5 28.1021 31.5 28.5ZM30 21H18C17.6022 21 17.2206 21.158 16.9393 21.4393C16.658 21.7206 16.5 22.1021 16.5 22.5C16.5 22.8978 16.658 23.2793 16.9393 23.5606C17.2206 23.8419 17.6022 24 18 24H30C30.3978 24 30.7794 23.8419 31.0607 23.5606C31.342 23.2793 31.5 22.8978 31.5 22.5C31.5 22.1021 31.342 21.7206 31.0607 21.4393C30.7794 21.158 30.3978 21 30 21ZM40.5 8.99997V40.5C40.5 41.2956 40.1839 42.0587 39.6213 42.6213C39.0587 43.1839 38.2956 43.5 37.5 43.5H10.5C9.70435 43.5 8.94129 43.1839 8.37868 42.6213C7.81607 42.0587 7.5 41.2956 7.5 40.5V8.99997C7.5 8.20432 7.81607 7.44126 8.37868 6.87865C8.94129 6.31604 9.70435 5.99997 10.5 5.99997H17.2988C18.1416 5.05633 19.1742 4.30133 20.329 3.78439C21.4838 3.26746 22.7348 3.00024 24 3.00024C25.2652 3.00024 26.5162 3.26746 27.671 3.78439C28.8258 4.30133 29.8584 5.05633 30.7013 5.99997H37.5C38.2956 5.99997 39.0587 6.31604 39.6213 6.87865C40.1839 7.44126 40.5 8.20432 40.5 8.99997ZM18 12H30C30 10.4087 29.3679 8.88255 28.2426 7.75733C27.1174 6.63211 25.5913 5.99997 24 5.99997C22.4087 5.99997 20.8826 6.63211 19.7574 7.75733C18.6321 8.88255 18 10.4087 18 12ZM37.5 8.99997H32.4844C32.8256 9.96338 33 10.9779 33 12V13.5C33 13.8978 32.842 14.2793 32.5607 14.5606C32.2794 14.8419 31.8978 15 31.5 15H16.5C16.1022 15 15.7206 14.8419 15.4393 14.5606C15.158 14.2793 15 13.8978 15 13.5V12C15 10.9779 15.1744 9.96338 15.5156 8.99997H10.5V40.5H37.5V8.99997Z" fill="#DDD2EF"/>
</svg>
